<svg id="Warstwa_1" data-name="Warstwa 1" xmlns="http://www.w3.org/2000/svg" viewBox="0 0 16 16"><defs><style>.cls-1{fill:#20252d;}</style></defs><title>5Obszar roboczy 1</title><path class="cls-1" d="M15.76,12.28a17,17,0,0,1-2.69-1.83c-.7-1.86-2-4.07-3.86-4.65A6.45,6.45,0,0,1,8.14,4.31c-.44-.78-.79-1.39-1.88-1.39a1.7,1.7,0,0,0-.76.18A2.39,2.39,0,0,0,4.84,3C2.51,3,.15,3.84.15,5.72a.11.11,0,0,0,0,0h0l0,0h0l0,0H.36c1.07-.29,4-.88,4.79-.12h0l.2.2A1.53,1.53,0,0,1,6,7.26c0,1,1.14,2.17,2.74,3.13a1.28,1.28,0,0,0,.7,1.13,1.43,1.43,0,0,1-.74.63l-.05,0A7.53,7.53,0,0,0,7,12.41a.17.17,0,0,0-.12.21.16.16,0,0,0,.16.12h0a8,8,0,0,1,3-.16.18.18,0,0,0,.18-.16.17.17,0,0,0-.14-.17c-.32,0-.62-.06-.92-.07a1.32,1.32,0,0,0,.44-.55,1.41,1.41,0,0,0,.35,0,1,1,0,0,0,.69-.25l.6.24a3.44,3.44,0,0,0,2.12,1.41h0a.17.17,0,0,0,.17-.17h0a2.76,2.76,0,0,0-.06-.57,10.36,10.36,0,0,0,2.07.25.17.17,0,0,0,.17-.17.16.16,0,0,0-.09-.15Z"/></svg>