<svg id="Warstwa_1" data-name="Warstwa 1" xmlns="http://www.w3.org/2000/svg" viewBox="0 0 500 500"><defs><style>.cls-1{fill:#8cffe3;}.cls-12,.cls-2,.cls-3,.cls-4,.cls-5,.cls-6,.cls-7,.cls-8,.cls-9{fill:none;stroke:#036aff;}.cls-2,.cls-3,.cls-4,.cls-5,.cls-6,.cls-7,.cls-8,.cls-9{stroke-linecap:round;stroke-linejoin:round;}.cls-2,.cls-3,.cls-4,.cls-5,.cls-6,.cls-7,.cls-8{stroke-width:4.04px;}.cls-3{stroke-dasharray:0.58 26.14;}.cls-4{stroke-dasharray:0.58 25.92;}.cls-5{stroke-dasharray:0.57 25.78;}.cls-6{stroke-dasharray:0.57 25.69;}.cls-7{stroke-dasharray:0.57 25.81;}.cls-8{stroke-dasharray:0.58 25.99;}.cls-12,.cls-9{stroke-width:2.31px;}.cls-10,.cls-11{fill:#036aff;}.cls-11{stroke:#fff;stroke-width:0.04px;}.cls-11,.cls-12{stroke-miterlimit:10;}</style></defs><title>infographics-1 Obszar roboczy 7</title><circle class="cls-1" cx="442.22" cy="141.46" r="27.38"/><rect class="cls-1" x="413.12" y="324.11" width="69.77" height="50.42" rx="4.61" ry="4.61"/><rect class="cls-1" x="203.9" y="22.21" width="84.17" height="22.47" rx="4.61" ry="4.61"/><rect class="cls-1" x="48.87" y="327.45" width="36.27" height="57.83" rx="4.61" ry="4.61"/><polygon class="cls-1" points="48.3 115.66 76.96 115.66 55.04 152.46 70.91 152.46 41.79 200.98 41.79 165.11 31.93 165.11 48.3 115.66"/><rect class="cls-1" x="234.52" y="430.3" width="56.46" height="17.37" rx="8.68" ry="8.68" transform="translate(165.93 -63.38) rotate(19.99)"/><rect class="cls-1" x="238.84" y="451.19" width="56.46" height="17.37" rx="8.68" ry="8.68" transform="translate(-246.96 323.54) rotate(-45)"/><path class="cls-2" d="M25.43,299l-.07-.28"/><path class="cls-3" d="M20.69,273.06a218.91,218.91,0,0,1-1.56-26.13q0-7.14.45-14.17"/><path class="cls-2" d="M20.82,219.74l0-.28"/><path class="cls-2" d="M175.6,455.27l-.28-.08"/><path class="cls-4" d="M150.93,446.47a217.07,217.07,0,0,1-56.26-35"/><path class="cls-2" d="M85.1,402.68l-.21-.19"/><path class="cls-2" d="M374.19,414.05l-.22.18"/><path class="cls-5" d="M353.17,429.43a216.79,216.79,0,0,1-35.27,18.35"/><path class="cls-2" d="M305.83,452.29l-.28.1"/><path class="cls-2" d="M449.93,212.49l.05.29"/><path class="cls-6" d="M452.5,238.33q.4,10-.13,20.12-.51,9.85-1.89,19.46"/><path class="cls-2" d="M448.3,290.57l-.06.28"/><path class="cls-2" d="M291.59,37.27l.28.07"/><path class="cls-7" d="M316.37,45.46a217.18,217.18,0,0,1,76.21,51.46"/><path class="cls-2" d="M401.22,106.48a2,2,0,0,0,.19.22"/><path class="cls-2" d="M75.41,101.18l.19-.21"/><path class="cls-8" d="M94.2,82.84a216.92,216.92,0,0,1,56.3-35.27"/><path class="cls-2" d="M162.6,42.81l.28-.1"/><path class="cls-9" d="M260.53,45.26H197.81a5,5,0,0,1-5-5V21a5,5,0,0,1,5-5h33.82"/><path class="cls-9" d="M273.06,16a5,5,0,0,1,5,5V40.3a5,5,0,0,1-5,5h-4.48"/><path class="cls-9" d="M236,21a16.29,16.29,0,1,1,16.29,16.29A16.27,16.27,0,0,1,236,21Z"/><circle class="cls-9" cx="252.29" cy="20.98" r="11.19"/><path class="cls-9" d="M258.43,21a6.14,6.14,0,0,1-6.14,6.15"/><line class="cls-9" x1="202.17" y1="22.79" x2="202.17" y2="38.94"/><line class="cls-9" x1="208.04" y1="22.79" x2="208.04" y2="38.94"/><line class="cls-9" x1="213.91" y1="22.79" x2="213.91" y2="38.94"/><line class="cls-9" x1="273.06" y1="16" x2="268.58" y2="16"/><path class="cls-9" d="M70.73,379.69V324.31a4.26,4.26,0,0,0-4.19-4.3H33.61a4.26,4.26,0,0,0-4.19,4.3v3.6"/><path class="cls-9" d="M29.42,334.9v54.51a4.26,4.26,0,0,0,4.19,4.3H66.54a4.26,4.26,0,0,0,4.19-4.3v-2.63"/><ellipse class="cls-9" cx="50.08" cy="338.2" rx="8.7" ry="8.93"/><ellipse class="cls-9" cx="50.08" cy="338.2" rx="2.84" ry="2.91"/><ellipse class="cls-9" cx="50.08" cy="369.11" rx="14.77" ry="15.16"/><ellipse class="cls-9" cx="50.08" cy="369.11" rx="5.82" ry="5.98"/><ellipse class="cls-10" cx="34.28" cy="325.68" rx="1.72" ry="1.77"/><ellipse class="cls-10" cx="65.87" cy="325.68" rx="1.72" ry="1.77"/><ellipse class="cls-10" cx="34.28" cy="388.55" rx="1.72" ry="1.77"/><ellipse class="cls-10" cx="65.87" cy="388.55" rx="1.72" ry="1.77"/><path class="cls-9" d="M467.59,372.56v1.85a5,5,0,0,1-5,5h-75a5,5,0,0,1-5-5V334.49"/><path class="cls-9" d="M382.68,325.11V323.7a5,5,0,0,1,5-5h75a5,5,0,0,1,5,5v40.13"/><line class="cls-9" x1="406.58" y1="394.99" x2="444.95" y2="394.99"/><line class="cls-9" x1="418.88" y1="385.28" x2="418.88" y2="393.63"/><line class="cls-9" x1="432.65" y1="385.28" x2="432.65" y2="393.63"/><polyline class="cls-9" points="48.2 165.1 26.14 198.53 32.51 161.99 18.36 161.99 30.91 125.77"/><polyline class="cls-9" points="33.94 117.04 35.16 113.5 64.4 113.5 42.01 152.8 56.31 152.8 53.3 157.36"/><line class="cls-9" x1="423.35" y1="186.84" x2="442.02" y2="186.84"/><line class="cls-9" x1="423.35" y1="192.46" x2="442.02" y2="192.46"/><line class="cls-9" x1="428.02" y1="197.89" x2="437.35" y2="197.89"/><path class="cls-9" d="M417.82,118.43a27.88,27.88,0,0,1,34.45,43.43"/><path class="cls-9" d="M413.22,162A27.87,27.87,0,0,1,410,125.75"/><path class="cls-9" d="M432.68,181.22H423s-1.53-11.15-9.88-19.34"/><path class="cls-9" d="M444.34,174.05a35.83,35.83,0,0,1,8-12.17"/><line class="cls-9" x1="432.53" y1="181.22" x2="442.22" y2="181.22"/><line class="cls-9" x1="425.91" y1="160.17" x2="425.91" y2="137.39"/><line class="cls-9" x1="439.15" y1="160.17" x2="439.15" y2="137.39"/><line class="cls-9" x1="432.53" y1="144.38" x2="432.53" y2="137.39"/><line class="cls-9" x1="425.91" y1="140.89" x2="439.15" y2="140.89"/><line class="cls-9" x1="204.81" y1="495.31" x2="257.47" y2="495.31"/><polyline class="cls-9" points="194.94 441.98 202.48 444.64 210.02 444.64"/><polyline class="cls-9" points="210.02 429.67 202.43 429.67 194.94 432.05"/><path class="cls-9" d="M209.69,429.67a7.49,7.49,0,1,1,0,15"/><path class="cls-9" d="M230.47,473.8l31.08-31.08a8.46,8.46,0,0,1,11.91,0h0a8.45,8.45,0,0,1,0,11.92l-18.9,18.61"/><path class="cls-9" d="M244.4,449.32l-12.12-4.46a8.45,8.45,0,0,1-5.08-10.78h0A8.44,8.44,0,0,1,238,429l32.8,11.8"/><path class="cls-9" d="M213,483a21.42,21.42,0,0,1,39,12.3H216.37"/><line class="cls-9" x1="221.77" y1="443.33" x2="221.77" y2="430.98"/><polygon class="cls-1" points="175.87 200.6 175.87 252.79 222.23 252.79 222.23 244.42 245.51 244.42 245.51 276.68 324 276.68 324 243.83 258.89 243.83 258.89 199.94 175.87 200.6"/><polygon class="cls-11" points="251.11 251.51 246.86 251.51 246.86 213.17 172.99 212.66 172.99 208.87 251.11 208.87 251.11 251.51"/><polyline class="cls-9" points="230.51 265.98 168.74 265.98 168.74 213.17 246.86 213.17 246.86 250.95"/><polyline class="cls-9" points="198.09 234.47 187.81 239.75 198.09 244.92"/><polyline class="cls-9" points="217.51 244.92 227.78 239.63 217.51 234.47"/><line class="cls-9" x1="212.43" y1="228.65" x2="203.17" y2="250.5"/><rect class="cls-12" x="230.69" y="251.51" width="100.57" height="32.41"/><circle class="cls-10" cx="249.27" cy="260.36" r="1.83"/><circle class="cls-10" cx="256.76" cy="260.36" r="1.83"/><circle class="cls-10" cx="264.26" cy="260.36" r="1.83"/><circle class="cls-10" cx="271.75" cy="260.36" r="1.83"/><circle class="cls-10" cx="279.24" cy="260.36" r="1.83"/><circle class="cls-10" cx="286.74" cy="260.36" r="1.83"/><circle class="cls-10" cx="294.23" cy="260.36" r="1.83"/><circle class="cls-10" cx="301.73" cy="260.36" r="1.83"/><circle class="cls-10" cx="309.22" cy="260.36" r="1.83"/><circle class="cls-10" cx="252.73" cy="265.4" r="1.83"/><circle class="cls-10" cx="260.22" cy="265.4" r="1.83"/><circle class="cls-10" cx="267.72" cy="265.4" r="1.83"/><circle class="cls-10" cx="275.21" cy="265.4" r="1.83"/><circle class="cls-10" cx="282.7" cy="265.4" r="1.83"/><circle class="cls-10" cx="290.2" cy="265.4" r="1.83"/><circle class="cls-10" cx="297.69" cy="265.4" r="1.83"/><circle class="cls-10" cx="305.19" cy="265.4" r="1.83"/><circle class="cls-10" cx="312.68" cy="265.4" r="1.83"/><circle class="cls-10" cx="249.27" cy="271.02" r="1.83"/><circle class="cls-10" cx="256.76" cy="271.02" r="1.83"/><circle class="cls-10" cx="264.26" cy="271.02" r="1.83"/><circle class="cls-10" cx="271.75" cy="271.02" r="1.83"/><circle class="cls-10" cx="279.24" cy="271.02" r="1.83"/><circle class="cls-10" cx="286.74" cy="271.02" r="1.83"/><circle class="cls-10" cx="294.23" cy="271.02" r="1.83"/><circle class="cls-10" cx="301.73" cy="271.02" r="1.83"/><circle class="cls-10" cx="309.22" cy="271.02" r="1.83"/></svg>