<svg xmlns="http://www.w3.org/2000/svg" xmlns:xlink="http://www.w3.org/1999/xlink" viewBox="0 0 349.93 310.95"><defs><style>.cls-1{fill:none;}.cls-2{clip-path:url(#clip-path);}.cls-3{fill:#fff;}</style><clipPath id="clip-path" transform="translate(-90.56 -90.9)"><rect class="cls-1" width="530.94" height="481.06"/></clipPath></defs><title>TS_basic_white</title><g id="Warstwa_2" data-name="Warstwa 2"><g id="Warstwa_1-2" data-name="Warstwa 1"><g class="cls-2"><path class="cls-3" d="M109.56,289.32l-.15,26.54c0,3.61.77,6.14,2.39,7.59s3.92,2.2,6.89,2.22a19,19,0,0,0,5.74-.84l0,6.66a26.32,26.32,0,0,1-7.44.92q-7.64,0-11.92-4t-4.23-11.55l.16-27.61-10.4-.06,0-6.17,10.4.06.07-12.45,8.62-2.75-.09,15.25,15.29.09,0,6.18Z" transform="translate(-90.56 -90.9)"/><path class="cls-3" d="M148.07,329.51a21.56,21.56,0,0,1-8.81-8.84,29.89,29.89,0,0,1,.16-26.63,21.54,21.54,0,0,1,8.91-8.73,30.08,30.08,0,0,1,26.54.15,21.7,21.7,0,0,1,8.82,8.84,29.89,29.89,0,0,1-.16,26.63,21.5,21.5,0,0,1-8.92,8.73,30,30,0,0,1-26.54-.15Zm25.53-8q4.28-4.74,4.33-13.92,0-8.86-4.27-13.78t-12.08-4.94q-7.86,0-12.23,4.8t-4.44,13.73q0,9.17,4.22,14t12.23,4.85Q169.33,326.26,173.6,321.5Z" transform="translate(-90.56 -90.9)"/><path class="cls-3" d="M249.19,284l-.28,48.54-8.39-.05,0-8.39a16.84,16.84,0,0,1-7.15,6.71A22.41,22.41,0,0,1,223.11,333q-9.45-.06-14.31-4.91T204,313.81l.17-30.1,8.6.05-.17,29.91q0,6.57,2.91,9.67t9,3.14q7.11,0,11.49-4.13a14.64,14.64,0,0,0,4.41-11l.16-27.41Z" transform="translate(-90.56 -90.9)"/><path class="cls-3" d="M278.59,330.28a21.56,21.56,0,0,1-8.86-8.79,29.2,29.2,0,0,1,.21-26.44,22.17,22.17,0,0,1,9.12-8.88,28.49,28.49,0,0,1,13.77-3.1,32.59,32.59,0,0,1,10.45,1.75,23.13,23.13,0,0,1,8.3,4.73l-2.9,5.77A32.15,32.15,0,0,0,300.9,291a22.61,22.61,0,0,0-7.68-1.4q-8.18,0-12.88,4.9t-4.75,13.82q-.06,8.79,4.54,13.68T293,327a22.69,22.69,0,0,0,7.7-1.3,32.4,32.4,0,0,0,7.83-4.2l2.83,5.8a25.08,25.08,0,0,1-8.57,4.54,33.94,33.94,0,0,1-10.68,1.62A28.24,28.24,0,0,1,278.59,330.28Z" transform="translate(-90.56 -90.9)"/><path class="cls-3" d="M373.82,284.7l-.29,48.55L365,333.2l0-8.79a16,16,0,0,1-7.1,7,23.52,23.52,0,0,1-11,2.4,24.54,24.54,0,0,1-12.45-3.16,20.87,20.87,0,0,1-8.23-8.79,31.15,31.15,0,0,1,.21-26.44,21.77,21.77,0,0,1,8.38-8.88,23.77,23.77,0,0,1,12.39-3.11A22.76,22.76,0,0,1,358.21,286a17.13,17.13,0,0,1,7.07,7.09l.05-8.4Zm-13,37.81q4.27-4.85,4.33-13.83T361,294.86Q356.8,290,349,290t-12.29,4.9q-4.44,5-4.49,13.82t4.27,13.73q4.32,4.86,12.29,4.9T360.86,322.51Z" transform="translate(-90.56 -90.9)"/><path class="cls-3" d="M440.49,303.14l-.18,30.5-8.6-.05.17-30.11q0-6.75-2.91-9.91t-9.32-3.19q-7.44,0-11.92,4.08t-4.52,11.17l-.16,27.79-8.6-.05.2-34.93a97.82,97.82,0,0,0-.77-13.62l8.18.05.8,8.69a16.78,16.78,0,0,1,7.36-7.24,23.57,23.57,0,0,1,11.16-2.49Q440.6,283.93,440.49,303.14Z" transform="translate(-90.56 -90.9)"/><path class="cls-3" d="M94.92,387.29l1.52-3.07a16.1,16.1,0,0,0,4.66,2.35,18.15,18.15,0,0,0,5.29.72,9.53,9.53,0,0,0,4.86-1,3.18,3.18,0,0,0,1.66-2.88,3,3,0,0,0-1.13-2.46,8.63,8.63,0,0,0-3.71-1.43l-4.77-1A10.91,10.91,0,0,1,97.82,376a5.87,5.87,0,0,1-1.94-4.4,6.46,6.46,0,0,1,3-5.49,13.3,13.3,0,0,1,7.86-2.12,17.83,17.83,0,0,1,5.62.87,12.12,12.12,0,0,1,4.45,2.5l-1.52,3a13.93,13.93,0,0,0-8.55-3,8.79,8.79,0,0,0-4.69,1.05,3.31,3.31,0,0,0-1.66,2.94,3.18,3.18,0,0,0,1,2.5,7.62,7.62,0,0,0,3.35,1.43l4.78,1.07a12.56,12.56,0,0,1,5.84,2.53,5.74,5.74,0,0,1,1.91,4.47,6.11,6.11,0,0,1-3,5.32,14.35,14.35,0,0,1-8.09,2Q99.08,390.61,94.92,387.29Z" transform="translate(-90.56 -90.9)"/><path class="cls-3" d="M171.36,364.55,158.15,392.6a15.11,15.11,0,0,1-5.23,6.44,20.2,20.2,0,0,1-7.75,2.81l-1-3.22a17.58,17.58,0,0,0,6-2.17,10,10,0,0,0,3.4-4.16l1.13-2.3-12-25.45h4.77l9.56,21.21,9.67-21.21Z" transform="translate(-90.56 -90.9)"/><path class="cls-3" d="M196.59,387.29l1.52-3.07a16.1,16.1,0,0,0,4.66,2.35,18.15,18.15,0,0,0,5.29.72,9.53,9.53,0,0,0,4.86-1,3.18,3.18,0,0,0,1.66-2.88,3,3,0,0,0-1.13-2.46,8.63,8.63,0,0,0-3.71-1.43l-4.77-1a10.91,10.91,0,0,1-5.48-2.55,5.83,5.83,0,0,1-1.94-4.4,6.46,6.46,0,0,1,3-5.49,13.3,13.3,0,0,1,7.86-2.12,17.83,17.83,0,0,1,5.62.87,12.07,12.07,0,0,1,4.44,2.5l-1.51,3a13.93,13.93,0,0,0-8.55-3,8.79,8.79,0,0,0-4.69,1.05A3.31,3.31,0,0,0,202,371.3a3.18,3.18,0,0,0,1,2.5,7.62,7.62,0,0,0,3.35,1.43l4.77,1.07a12.55,12.55,0,0,1,5.85,2.53A5.74,5.74,0,0,1,219,383.3a6.11,6.11,0,0,1-3,5.32,14.35,14.35,0,0,1-8.09,2Q200.75,390.61,196.59,387.29Z" transform="translate(-90.56 -90.9)"/><path class="cls-3" d="M254.48,367.82v14.05c0,1.91.43,3.25,1.29,4a5.3,5.3,0,0,0,3.66,1.15,9.94,9.94,0,0,0,3-.46v3.53a14,14,0,0,1-3.93.51,9.07,9.07,0,0,1-6.33-2.07,7.85,7.85,0,0,1-2.27-6.1V367.82h-5.51v-3.27h5.51V358l4.55-1.48v8.07h8.09v3.27Z" transform="translate(-90.56 -90.9)"/><path class="cls-3" d="M314.22,377.27H293.48q.06,4.92,2.51,7.41t7.11,2.51a15.18,15.18,0,0,0,9.1-3l1.52,3a13.6,13.6,0,0,1-4.75,2.5,19.58,19.58,0,0,1-5.93.92q-6.63,0-10.4-3.55t-3.77-9.73a14.2,14.2,0,0,1,1.69-7,12,12,0,0,1,4.72-4.72,14,14,0,0,1,6.92-1.69q5.61,0,8.82,3.35t3.2,9.22Zm-17.73-8.17a9.05,9.05,0,0,0-2.84,5.47h16.47a8.4,8.4,0,0,0-2.33-5.52,7.74,7.74,0,0,0-5.54-1.89A8.45,8.45,0,0,0,296.49,369.1Z" transform="translate(-90.56 -90.9)"/><path class="cls-3" d="M384.36,374.11v16.14h-4.55V374.31q0-3.63-1.38-5.26c-.92-1.09-2.4-1.64-4.47-1.64a7.29,7.29,0,0,0-5.62,2.2,8.54,8.54,0,0,0-2,6v14.66h-4.55V374.31c0-2.38-.47-4.13-1.41-5.23a5.55,5.55,0,0,0-4.49-1.67,7.37,7.37,0,0,0-5.65,2.2,8.41,8.41,0,0,0-2.05,6v14.66h-4.55V371.76a52.45,52.45,0,0,0-.45-7.21h4.32l.45,4.5a8.43,8.43,0,0,1,3.52-3.78,10.7,10.7,0,0,1,5.42-1.33,11,11,0,0,1,5.51,1.23,7.23,7.23,0,0,1,3.14,3.78,9.38,9.38,0,0,1,3.8-3.66,11.68,11.68,0,0,1,5.65-1.35Q384.36,363.94,384.36,374.11Z" transform="translate(-90.56 -90.9)"/><path class="cls-3" d="M413.76,387.29l1.51-3.07a16,16,0,0,0,4.67,2.35,18,18,0,0,0,5.28.72,9.48,9.48,0,0,0,4.86-1,3.16,3.16,0,0,0,1.66-2.88,3,3,0,0,0-1.12-2.46,8.69,8.69,0,0,0-3.71-1.43l-4.78-1a10.91,10.91,0,0,1-5.48-2.55,5.87,5.87,0,0,1-1.94-4.4,6.46,6.46,0,0,1,3-5.49,13.31,13.31,0,0,1,7.87-2.12,17.87,17.87,0,0,1,5.62.87,12.15,12.15,0,0,1,4.44,2.5l-1.52,3a13.92,13.92,0,0,0-8.54-3,8.8,8.8,0,0,0-4.7,1.05,3.3,3.3,0,0,0-1.65,2.94,3.15,3.15,0,0,0,1,2.5,7.52,7.52,0,0,0,3.34,1.43l4.78,1.07a12.56,12.56,0,0,1,5.84,2.53,5.71,5.71,0,0,1,1.91,4.47,6.12,6.12,0,0,1-3,5.32,14.41,14.41,0,0,1-8.1,2Q417.91,390.61,413.76,387.29Z" transform="translate(-90.56 -90.9)"/><path class="cls-3" d="M368.8,226.24c-.22-.11-22.06-11.67-38.89-26.45-10.23-27-29.32-58.83-55.86-67.26-7.4-7.44-11.67-14.93-15.43-21.54-6.38-11.23-11.42-20.09-27.2-20.09a22.62,22.62,0,0,0-10.94,2.59,33,33,0,0,0-9.57-1.37c-33.8,0-67.9,12.11-67.9,39.17a2.3,2.3,0,0,0,.16.82s0,.09.05.14a2.37,2.37,0,0,0,.45.68l.05.07.07.05.17.16a2.5,2.5,0,0,0,.53.3l.1,0a2.44,2.44,0,0,0,.76.15h.1a2.49,2.49,0,0,0,.61-.08c15.53-4.23,58.28-12.8,69.33-1.75h0c1,1,2,2,2.92,2.88,4.52,4.25,8.78,8.27,8.78,18.93,0,14.81,16.52,31.34,39.59,45.29.35,7.39,4,13.19,10.12,16.3-2.2,5.19-8.66,8.27-10.76,9.15a2.38,2.38,0,0,0-.69.46,103.07,103.07,0,0,0-22.73,3.32,2.41,2.41,0,0,0,.63,4.74,2.39,2.39,0,0,0,.64-.08c12.47-3.4,27.21-4.16,43.8-2.28a2.42,2.42,0,0,0,.54-4.8c-4.57-.52-9-.83-13.31-1a19.51,19.51,0,0,0,6.4-7.86,20.91,20.91,0,0,0,5,.63c4.12,0,7.86-1.27,10-3.64q4.29,1.8,8.65,3.46c9.63,16.06,29.83,20.25,30.7,20.42a2.5,2.5,0,0,0,.47,0,2.41,2.41,0,0,0,2.41-2.42,52.08,52.08,0,0,0-.82-8.24,143.79,143.79,0,0,0,29.95,3.56,2.41,2.41,0,0,0,1.13-4.55Zm-42.91-24.09a2.54,2.54,0,0,0,.17.46A147.76,147.76,0,0,1,331.7,221a224.07,224.07,0,0,1-23.61-7.4,2,2,0,0,0-.32-.18,2.2,2.2,0,0,0-.25-.17c-19.28-8.06-59.09-33.39-59.09-60.18,0-10.39,7.87-16,22.75-16.3C296.34,144,315.75,175.3,325.89,202.15ZM231.42,95.73c13,0,17,7,23,17.64a113,113,0,0,0,11.51,17.4,43.73,43.73,0,0,0-5.52-.38,48.54,48.54,0,0,0-18.76,3.53c1.63-6.55,1-15.12-2.08-22.57a30.64,30.64,0,0,0-12.74-15.08A19.57,19.57,0,0,1,231.42,95.73ZM215.5,97.3a25.89,25.89,0,0,0-5.91,10.52,134.55,134.55,0,0,0-32.72,3.89,30.27,30.27,0,0,0-4.77-8.2C183.45,99.07,197.4,97,210.91,97A31.57,31.57,0,0,1,215.5,97.3Zm-48.05,8.22a26.06,26.06,0,0,1,4.72,7.54,71.76,71.76,0,0,0-23.54,12.17C150.89,116.66,157.91,110.13,167.45,105.52Zm6.12,12.14a34.26,34.26,0,0,1,.71,5.42c-7.26,1-14,2.28-19.28,3.43A69.74,69.74,0,0,1,173.57,117.66Zm5.51,4.84a38.59,38.59,0,0,0-.85-6.16,128.55,128.55,0,0,1,30.37-3.67c0,.39-.09.79-.11,1.15a27.93,27.93,0,0,0,1.62,9.86C201.69,121.12,190.14,121.3,179.08,122.5Zm42.56,8.74c-4.46-4.21-8.32-7.84-8.32-17.27,0-.54.78-10.13,7.81-15.18,8.1,3.21,12.14,9.93,14,14.41,4.19,10.11,2.91,21.36-.87,25.14a1.63,1.63,0,0,0-.11.17,21,21,0,0,0-3.92,4.41C228.23,137.47,224.8,134.22,221.64,131.24Zm10.3,22.45a14.86,14.86,0,0,1,5.47-11.77,1.92,1.92,0,0,0,.26-.17l.09-.1c4.16-3.37,10.05-5.25,16.1-6-8.58,4.51-10.26,12.16-10.26,17.44,0,15.54,11.15,29.81,24.39,41.11C246.77,181.08,231.94,166.09,231.94,153.69Zm48.57,58a13.44,13.44,0,0,1-8.58-9.65c6.12,3.45,12.61,6.71,19.32,9.72C288.79,213,284.58,213.24,280.51,211.69Zm53.07,20.61c-4.63-1.41-13.64-4.89-20.32-11.9,6.51,2.21,13.05,4.12,19.49,5.69C333.14,228.33,333.43,230.42,333.58,232.3Zm3.15-10.1c-.9-4.11-2.14-8.69-3.72-13.58a236.73,236.73,0,0,0,24.75,16.91A158.14,158.14,0,0,1,336.73,222.2Z" transform="translate(-90.56 -90.9)"/><path class="cls-3" d="M222.88,104.78a3.25,3.25,0,1,0,3.25,3.24A3.24,3.24,0,0,0,222.88,104.78Z" transform="translate(-90.56 -90.9)"/></g></g></g></svg>