<svg xmlns="http://www.w3.org/2000/svg" xmlns:xlink="http://www.w3.org/1999/xlink" viewBox="0 0 550.19 148.16"><defs><style>.cls-1{fill:none;}.cls-2{clip-path:url(#clip-path);}.cls-3{fill:#fff;}</style><clipPath id="clip-path" transform="translate(-46.31 -46.25)"><rect id="SVGID" class="cls-1" width="642.71" height="240.6"/></clipPath></defs><title>TS_vert_white</title><g id="Warstwa_2" data-name="Warstwa 2"><g id="Warstwa_1-2" data-name="Warstwa 1"><g class="cls-2"><path class="cls-3" d="M326.34,83.15l-.13,21.66q0,4.41,2,6.2a8.25,8.25,0,0,0,5.63,1.81,15.29,15.29,0,0,0,4.68-.69l0,5.44a21.52,21.52,0,0,1-6.07.75q-6.24,0-9.73-3.25t-3.46-9.43l.13-22.53-8.49,0,0-5,8.49,0,.06-10.16,7-2.24-.08,12.44,12.48.08,0,5Z" transform="translate(-46.31 -46.25)"/><path class="cls-3" d="M357.77,116a17.59,17.59,0,0,1-7.19-7.21,22.12,22.12,0,0,1-2.49-10.89A22.09,22.09,0,0,1,350.71,87,17.59,17.59,0,0,1,358,79.87a24.53,24.53,0,0,1,21.66.12,17.69,17.69,0,0,1,7.2,7.22,22.3,22.3,0,0,1,2.49,10.88A22.31,22.31,0,0,1,386.72,109a17.61,17.61,0,0,1-7.28,7.13,24.51,24.51,0,0,1-21.67-.13Zm20.84-6.53q3.5-3.89,3.54-11.37,0-7.24-3.49-11.25t-9.86-4q-6.41,0-10,3.92t-3.62,11.2q0,7.49,3.45,11.41t10,4Q375.13,113.29,378.61,109.42Z" transform="translate(-46.31 -46.25)"/><path class="cls-3" d="M440.33,78.78l-.24,39.63-6.84,0,0-6.86a13.73,13.73,0,0,1-5.84,5.48,18.25,18.25,0,0,1-8.42,1.84q-7.71,0-11.68-4t-3.91-11.68l.14-24.58,7,0L410.46,103c0,3.58.77,6.21,2.38,7.9s4.05,2.54,7.35,2.56a12.93,12.93,0,0,0,9.38-3.37,12,12,0,0,0,3.61-9l.13-22.38Z" transform="translate(-46.31 -46.25)"/><path class="cls-3" d="M464.33,116.58a17.61,17.61,0,0,1-7.24-7.17,21.76,21.76,0,0,1-2.49-10.78,21.91,21.91,0,0,1,2.66-10.81,18.14,18.14,0,0,1,7.45-7.25A23.24,23.24,0,0,1,476,78a26.64,26.64,0,0,1,8.53,1.43,18.75,18.75,0,0,1,6.78,3.86L488.89,88a26.28,26.28,0,0,0-6.35-3.5,18.37,18.37,0,0,0-6.27-1.14c-4.45,0-8,1.31-10.51,4s-3.86,6.46-3.88,11.29,1.2,8.5,3.7,11.17,6,4,10.51,4a18.68,18.68,0,0,0,6.29-1.06,26.49,26.49,0,0,0,6.39-3.44l2.31,4.75a20.65,20.65,0,0,1-7,3.7,27.77,27.77,0,0,1-8.72,1.32A23,23,0,0,1,464.33,116.58Z" transform="translate(-46.31 -46.25)"/><path class="cls-3" d="M542.07,79.37,541.84,119l-6.94,0,0-7.17a13,13,0,0,1-5.79,5.68,19.1,19.1,0,0,1-9,2A20,20,0,0,1,510,116.85a17.11,17.11,0,0,1-6.72-7.17A23.16,23.16,0,0,1,501,98.91a23.15,23.15,0,0,1,2.49-10.82,17.82,17.82,0,0,1,6.85-7.25,19.43,19.43,0,0,1,10.11-2.54,18.56,18.56,0,0,1,8.91,2.1,13.83,13.83,0,0,1,5.77,5.79l0-6.86Zm-10.58,30.87Q535,106.28,535,99t-3.4-11.29q-3.45-4-9.86-4t-10,4q-3.62,4-3.66,11.28t3.49,11.21q3.52,4,10,4T531.49,110.24Z" transform="translate(-46.31 -46.25)"/><path class="cls-3" d="M596.49,94.43l-.14,24.89-7,0,.14-24.58q0-5.51-2.38-8.09C585.48,84.9,583,84,579.48,84c-4,0-7.29,1.09-9.73,3.33a11.89,11.89,0,0,0-3.69,9.12l-.13,22.69-7,0,.16-28.52a80.44,80.44,0,0,0-.62-11.12l6.67,0,.65,7.09a13.76,13.76,0,0,1,6-5.91,19.37,19.37,0,0,1,9.11-2Q596.59,78.75,596.49,94.43Z" transform="translate(-46.31 -46.25)"/><path class="cls-3" d="M314.38,163.12l1.24-2.5a13.39,13.39,0,0,0,3.81,1.92,14.79,14.79,0,0,0,4.31.58,7.82,7.82,0,0,0,4-.81,2.61,2.61,0,0,0,1.36-2.36,2.46,2.46,0,0,0-.92-2,7.06,7.06,0,0,0-3-1.17l-3.9-.83a8.89,8.89,0,0,1-4.47-2.09,4.75,4.75,0,0,1-1.59-3.58,5.29,5.29,0,0,1,2.43-4.49,10.92,10.92,0,0,1,6.43-1.73,14.7,14.7,0,0,1,4.59.71,9.91,9.91,0,0,1,3.62,2L331,149.28a11.35,11.35,0,0,0-7-2.47,7.17,7.17,0,0,0-3.83.86,2.68,2.68,0,0,0-1.36,2.4,2.6,2.6,0,0,0,.85,2,6.23,6.23,0,0,0,2.73,1.17l3.9.87a10.29,10.29,0,0,1,4.77,2.07,4.67,4.67,0,0,1,1.56,3.65,5,5,0,0,1-2.43,4.34,11.77,11.77,0,0,1-6.61,1.62Q317.78,165.83,314.38,163.12Z" transform="translate(-46.31 -46.25)"/><path class="cls-3" d="M376.78,144.56,366,167.46a12.34,12.34,0,0,1-4.27,5.26A16.52,16.52,0,0,1,355.4,175l-.78-2.63a14.17,14.17,0,0,0,4.93-1.77,8.14,8.14,0,0,0,2.78-3.4l.92-1.88-9.78-20.77h3.9l7.8,17.31,7.9-17.31Z" transform="translate(-46.31 -46.25)"/><path class="cls-3" d="M397.38,163.12l1.24-2.5a13.39,13.39,0,0,0,3.81,1.92,14.83,14.83,0,0,0,4.31.58,7.82,7.82,0,0,0,4-.81,2.61,2.61,0,0,0,1.36-2.36,2.46,2.46,0,0,0-.92-2,7.06,7.06,0,0,0-3-1.17l-3.9-.83a8.89,8.89,0,0,1-4.47-2.09,4.75,4.75,0,0,1-1.59-3.58,5.28,5.28,0,0,1,2.44-4.49,10.87,10.87,0,0,1,6.42-1.73,14.7,14.7,0,0,1,4.59.71,9.91,9.91,0,0,1,3.62,2L414,149.28a11.35,11.35,0,0,0-7-2.47,7.17,7.17,0,0,0-3.83.86,2.7,2.7,0,0,0-1.36,2.4,2.6,2.6,0,0,0,.85,2,6.23,6.23,0,0,0,2.73,1.17l3.9.87a10.29,10.29,0,0,1,4.77,2.07,4.67,4.67,0,0,1,1.56,3.65,5,5,0,0,1-2.43,4.34,11.76,11.76,0,0,1-6.6,1.62C402.72,165.83,399.65,164.93,397.38,163.12Z" transform="translate(-46.31 -46.25)"/><path class="cls-3" d="M444.64,147.23V158.7A4.22,4.22,0,0,0,445.7,162a4.34,4.34,0,0,0,3,.93,8.28,8.28,0,0,0,2.48-.37v2.88a11.73,11.73,0,0,1-3.21.41,7.43,7.43,0,0,1-5.17-1.68,6.4,6.4,0,0,1-1.85-5V147.23h-4.5v-2.67h4.5v-5.38l3.71-1.21v6.59h6.61v2.67Z" transform="translate(-46.31 -46.25)"/><path class="cls-3" d="M493.41,155H476.48a8.49,8.49,0,0,0,2,6.05,7.75,7.75,0,0,0,5.8,2,12.38,12.38,0,0,0,7.43-2.46L493,163a11,11,0,0,1-3.88,2,15.84,15.84,0,0,1-4.84.75q-5.41,0-8.48-2.89a10.41,10.41,0,0,1-3.08-7.95,11.5,11.5,0,0,1,1.38-5.69,9.66,9.66,0,0,1,3.85-3.86,11.42,11.42,0,0,1,5.65-1.38,9.5,9.5,0,0,1,7.2,2.73,10.47,10.47,0,0,1,2.61,7.53Zm-14.47-6.68a7.44,7.44,0,0,0-2.32,4.47h13.44a6.8,6.8,0,0,0-1.9-4.51,6.29,6.29,0,0,0-4.52-1.54A6.9,6.9,0,0,0,478.94,148.27Z" transform="translate(-46.31 -46.25)"/><path class="cls-3" d="M550.67,152.36v13.18H547v-13a6.63,6.63,0,0,0-1.13-4.3,4.5,4.5,0,0,0-3.64-1.33,5.94,5.94,0,0,0-4.59,1.79,6.93,6.93,0,0,0-1.65,4.88v12h-3.72v-13a6.54,6.54,0,0,0-1.15-4.28,4.56,4.56,0,0,0-3.67-1.35,6,6,0,0,0-4.61,1.79,6.85,6.85,0,0,0-1.67,4.88v12h-3.72v-15.1a41.88,41.88,0,0,0-.37-5.88h3.54l.36,3.67a7,7,0,0,1,2.87-3.08,8.74,8.74,0,0,1,4.43-1.09,8.91,8.91,0,0,1,4.49,1,5.92,5.92,0,0,1,2.57,3.09,7.62,7.62,0,0,1,3.1-3,9.5,9.5,0,0,1,4.61-1.11Q550.67,144.06,550.67,152.36Z" transform="translate(-46.31 -46.25)"/><path class="cls-3" d="M574.67,163.12l1.24-2.5a13.13,13.13,0,0,0,3.81,1.92,14.79,14.79,0,0,0,4.31.58,7.85,7.85,0,0,0,4-.81,2.6,2.6,0,0,0,1.35-2.36,2.46,2.46,0,0,0-.91-2,7.17,7.17,0,0,0-3-1.17l-3.9-.83a9,9,0,0,1-4.48-2.09,4.77,4.77,0,0,1-1.58-3.58,5.29,5.29,0,0,1,2.43-4.49,10.9,10.9,0,0,1,6.43-1.73,14.59,14.59,0,0,1,4.58.71,9.87,9.87,0,0,1,3.63,2l-1.24,2.47a11.37,11.37,0,0,0-7-2.47,7.21,7.21,0,0,0-3.84.86,2.69,2.69,0,0,0-1.35,2.4,2.57,2.57,0,0,0,.85,2,6.23,6.23,0,0,0,2.73,1.17l3.9.87a10.29,10.29,0,0,1,4.77,2.07,4.67,4.67,0,0,1,1.56,3.65,5,5,0,0,1-2.43,4.34,11.77,11.77,0,0,1-6.61,1.62C580,165.83,576.93,164.93,574.67,163.12Z" transform="translate(-46.31 -46.25)"/><path class="cls-3" d="M273.89,182.68c-.22-.12-22.23-11.77-39.19-26.67-10.32-27.24-29.56-59.3-56.3-67.79-7.47-7.5-11.77-15-15.56-21.72-6.43-11.31-11.52-20.25-27.42-20.25a22.69,22.69,0,0,0-11,2.62,33.25,33.25,0,0,0-9.65-1.39C80.68,47.48,46.31,59.69,46.31,87a2.3,2.3,0,0,0,.16.82s0,.1.05.14a2.31,2.31,0,0,0,.46.69s0,0,0,.07l.08,0,.16.16a2.06,2.06,0,0,0,.54.3l.1,0a2.57,2.57,0,0,0,.77.15h.1a2.13,2.13,0,0,0,.61-.08c15.66-4.26,58.74-12.9,69.89-1.76h0c1,1,2,2,3,2.9,4.55,4.29,8.85,8.34,8.85,19.08,0,14.94,16.65,31.6,39.9,45.65.36,7.45,4,13.3,10.2,16.44-2.21,5.23-8.72,8.33-10.84,9.22a2.38,2.38,0,0,0-.69.46,103.43,103.43,0,0,0-22.92,3.35,2.43,2.43,0,0,0,.64,4.78,2.87,2.87,0,0,0,.64-.08c12.57-3.43,27.42-4.2,44.15-2.31a2.43,2.43,0,0,0,.55-4.83c-4.62-.52-9.09-.83-13.43-1a19.69,19.69,0,0,0,6.46-7.93,21.31,21.31,0,0,0,5,.63c4.15,0,7.92-1.28,10.07-3.67q4.32,1.83,8.72,3.49c9.7,16.19,30.07,20.41,30.94,20.59a2.59,2.59,0,0,0,.48,0A2.43,2.43,0,0,0,243.4,192a53,53,0,0,0-.83-8.31,144.83,144.83,0,0,0,30.19,3.59,2.43,2.43,0,0,0,1.13-4.58Zm-43.24-24.29a2.29,2.29,0,0,0,.17.46,151.14,151.14,0,0,1,5.68,18.55,226.07,226.07,0,0,1-23.8-7.46,2,2,0,0,0-.32-.18,2.2,2.2,0,0,0-.25-.17c-19.43-8.13-59.56-33.66-59.56-60.66,0-10.47,7.93-16.13,22.93-16.43C200.86,99.78,220.43,131.33,230.65,158.39ZM135.42,51.12c13.07,0,17.1,7.08,23.19,17.79a114.1,114.1,0,0,0,11.61,17.53,44.52,44.52,0,0,0-5.57-.39,48.82,48.82,0,0,0-18.9,3.57c1.63-6.6,1-15.25-2.1-22.75a31,31,0,0,0-12.84-15.21A20.39,20.39,0,0,1,135.42,51.12Zm-16,1.59a25.89,25.89,0,0,0-6,10.6,135.66,135.66,0,0,0-33,3.92A30.76,30.76,0,0,0,75.63,59c11.44-4.47,25.51-6.61,39.12-6.61A30.63,30.63,0,0,1,119.38,52.71ZM71,61a26.45,26.45,0,0,1,4.75,7.6A72.34,72.34,0,0,0,52,80.86C54.25,72.22,61.33,65.64,71,61Zm6.16,12.24a33.62,33.62,0,0,1,.72,5.46c-7.32,1-14.16,2.3-19.44,3.45A70.53,70.53,0,0,1,77.11,73.23Zm5.56,4.87a38,38,0,0,0-.87-6.2,130.06,130.06,0,0,1,30.62-3.71c0,.4-.09.8-.11,1.17a28,28,0,0,0,1.63,9.93C105.45,76.72,93.82,76.9,82.67,78.1Zm42.9,8.82c-4.5-4.24-8.39-7.91-8.4-17.41,0-.55.79-10.21,7.88-15.3,8.16,3.24,12.23,10,14.1,14.52,4.23,10.19,2.93,21.54-.87,25.34-.05.05-.07.12-.12.18a20.72,20.72,0,0,0-3.94,4.44C132.2,93.2,128.75,89.92,125.57,86.92ZM136,109.54a15,15,0,0,1,5.51-11.86,1.92,1.92,0,0,0,.26-.17l.09-.11C146,94,152,92.12,158,91.35c-8.65,4.54-10.34,12.26-10.34,17.58,0,15.67,11.24,30,24.58,41.43C150.89,137.15,136,122.05,136,109.54Zm49,58.47a13.58,13.58,0,0,1-8.64-9.73c6.16,3.48,12.71,6.77,19.47,9.79C193.25,169.29,189,169.57,184.9,168Zm53.5,20.77c-4.67-1.42-13.76-4.93-20.49-12,6.56,2.23,13.16,4.16,19.65,5.74C238,184.77,238.24,186.88,238.4,188.78Zm3.17-10.18c-.91-4.14-2.16-8.76-3.75-13.69a237.82,237.82,0,0,0,24.95,17A159,159,0,0,1,241.57,178.6Z" transform="translate(-46.31 -46.25)"/><path class="cls-3" d="M126.82,60.24a3.28,3.28,0,1,0,3.27,3.27A3.27,3.27,0,0,0,126.82,60.24Z" transform="translate(-46.31 -46.25)"/></g></g></g></svg>