<?xml version="1.0" encoding="utf-8"?>
<!-- Generator: Adobe Illustrator 22.1.0, SVG Export Plug-In . SVG Version: 6.00 Build 0)  -->
<svg version="1.1" id="Warstwa_1" xmlns="http://www.w3.org/2000/svg" xmlns:xlink="http://www.w3.org/1999/xlink" x="0px" y="0px"
	 viewBox="0 0 130 130" style="enable-background:new 0 0 130 130;" xml:space="preserve">
<style type="text/css">
	.st0{fill:#FFFFFF;}
</style>
<g>
	<g>
		<g>
			<path class="st0" d="M8.7,82l-0.1,9.6c0,1.3,0.3,2.2,0.9,2.7c0.6,0.5,1.4,0.8,2.5,0.8c0.7,0,1.4-0.1,2.1-0.3v2.4
				c-0.8,0.2-1.7,0.3-2.7,0.3c-1.8,0-3.3-0.5-4.3-1.4s-1.5-2.3-1.5-4.2l0.1-10H1.9v-2.2h3.8v-4.5l3.1-1v5.5h5.5v2.2L8.7,82z"/>
			<path class="st0" d="M22.6,96.5c-1.4-0.8-2.4-1.8-3.2-3.2s-1.1-3-1.1-4.8s0.4-3.4,1.2-4.8s1.8-2.4,3.2-3.2c1.4-0.7,3-1.1,4.8-1.1
				s3.4,0.4,4.8,1.1c1.4,0.8,2.4,1.8,3.2,3.2s1.1,3,1.1,4.8s-0.4,3.4-1.2,4.8s-1.8,2.4-3.2,3.2c-1.4,0.7-3,1.1-4.8,1.1
				S23.9,97.2,22.6,96.5z M31.8,93.6c1-1.1,1.5-2.8,1.6-5c0-2.1-0.5-3.8-1.5-5s-2.5-1.8-4.4-1.8s-3.4,0.6-4.4,1.7
				c-1.1,1.2-1.6,2.8-1.6,5s0.5,3.9,1.5,5s2.5,1.7,4.4,1.8C29.3,95.3,30.7,94.7,31.8,93.6z"/>
			<path class="st0" d="M59,80l-0.1,17.5h-3v-3c-0.6,1.1-1.5,1.9-2.6,2.4s-2.3,0.8-3.7,0.8c-2.3,0-4-0.6-5.2-1.8
				c-1.2-1.2-1.7-2.9-1.7-5.2l0.1-10.9h3.1l-0.1,10.8c0,1.6,0.3,2.7,1.1,3.5c0.7,0.7,1.8,1.1,3.2,1.1c1.7,0,3.1-0.5,4.1-1.5
				s1.6-2.3,1.6-4l0.1-9.9L59,80z"/>
			<path class="st0" d="M69.6,96.8c-1.4-0.8-2.5-1.8-3.2-3.2c-0.7-1.4-1.1-2.9-1.1-4.8s0.4-3.4,1.2-4.8s1.9-2.4,3.3-3.2
				c1.4-0.8,3.1-1.1,5-1.1c1.3,0,2.6,0.2,3.8,0.6s2.2,1,3,1.7l-1,2.1c-1-0.7-1.9-1.2-2.8-1.5c-0.9-0.3-1.8-0.5-2.8-0.5
				c-2,0-3.5,0.6-4.6,1.8c-1.1,1.2-1.7,2.9-1.7,5s0.5,3.8,1.6,4.9c1.1,1.2,2.7,1.8,4.6,1.8c0.9,0,1.9-0.2,2.8-0.5
				c0.9-0.3,1.8-0.8,2.8-1.5l1,2.1c-0.8,0.7-1.9,1.2-3.1,1.6c-1.2,0.4-2.5,0.6-3.9,0.6C72.7,97.9,71,97.5,69.6,96.8z"/>
			<path class="st0" d="M104,80.3l-0.1,17.5h-3.1v-3.2c-0.6,1.1-1.4,1.9-2.6,2.5c-1.1,0.6-2.5,0.9-4,0.9c-1.7,0-3.2-0.4-4.5-1.1
				c-1.3-0.8-2.3-1.8-3-3.2c-0.7-1.4-1-2.9-1-4.8s0.4-3.4,1.1-4.8s1.7-2.4,3-3.2s2.8-1.1,4.5-1.1c1.5,0,2.8,0.3,3.9,0.9
				s2,1.5,2.6,2.6v-3L104,80.3z M99.3,94c1-1.2,1.5-2.8,1.6-5c0-2.2-0.5-3.8-1.5-5s-2.5-1.8-4.4-1.8s-3.4,0.6-4.4,1.8S89,86.9,89,89
				s0.5,3.8,1.5,5s2.5,1.8,4.4,1.8C96.8,95.7,98.3,95.1,99.3,94z"/>
			<path class="st0" d="M128.1,87L128,98h-3.1l0.1-10.9c0-1.6-0.3-2.8-1.1-3.6c-0.7-0.8-1.8-1.1-3.4-1.2c-1.8,0-3.2,0.5-4.3,1.5
				c-1.1,1-1.6,2.3-1.6,4l-0.1,10h-3.1l0.1-12.6c0-1.8-0.1-3.4-0.3-4.9h2.9l0.3,3.1c0.6-1.1,1.5-2,2.7-2.6s2.5-0.9,4-0.9
				C125.8,80,128.1,82.3,128.1,87z"/>
		</g>
		<g>
			<path class="st0" d="M41.2,112.9v5.8h-1.6v-5.8c0-0.9-0.2-1.5-0.6-1.9c-0.4-0.4-1-0.6-1.8-0.6c-0.9,0-1.7,0.3-2.3,0.8
				s-0.9,1.2-0.9,2.1v5.3h-1.6v-6.7c0-1-0.1-1.8-0.2-2.6h1.6L34,111c0.3-0.6,0.8-1.1,1.4-1.4c0.6-0.3,1.3-0.5,2.1-0.5
				C39.9,109.3,41.2,110.5,41.2,112.9z"/>
			<path class="st0" d="M60.9,114.1h-7.5c0,1.2,0.3,2.1,0.9,2.7c0.6,0.6,1.4,0.9,2.6,0.9c1.2,0,2.3-0.4,3.3-1.1l0.5,1.1
				c-0.4,0.4-1,0.7-1.7,0.9c-0.7,0.2-1.4,0.3-2.1,0.3c-1.6,0-2.8-0.4-3.8-1.3c-0.9-0.9-1.4-2-1.4-3.5c0-0.9,0.2-1.8,0.6-2.5
				c0.4-0.7,1-1.3,1.7-1.7c0.7-0.4,1.6-0.6,2.5-0.6c1.4,0,2.4,0.4,3.2,1.2c0.8,0.8,1.2,1.9,1.2,3.3V114.1z M54.5,111.1
				c-0.5,0.5-0.9,1.1-1,2h5.9c-0.1-0.9-0.4-1.5-0.8-2c-0.5-0.5-1.1-0.7-2-0.7S55.1,110.7,54.5,111.1z"/>
			<path class="st0" d="M70.9,117.7l0.5-1.1c0.6,0.4,1.1,0.7,1.7,0.8s1.2,0.3,1.9,0.3c0.8,0,1.4-0.1,1.8-0.4c0.4-0.2,0.6-0.6,0.6-1
				s-0.1-0.7-0.4-0.9c-0.3-0.2-0.7-0.4-1.3-0.5l-1.7-0.4c-0.9-0.2-1.5-0.5-2-0.9s-0.7-1-0.7-1.6c0-0.8,0.4-1.5,1.1-2
				c0.7-0.5,1.7-0.8,2.8-0.8c0.7,0,1.4,0.1,2,0.3c0.6,0.2,1.2,0.5,1.6,0.9l-0.5,1.1c-1-0.7-2-1.1-3.1-1.1c-0.7,0-1.3,0.1-1.7,0.4
				s-0.6,0.6-0.6,1.1c0,0.4,0.1,0.7,0.4,0.9c0.3,0.2,0.7,0.4,1.2,0.5l1.7,0.4c0.9,0.2,1.6,0.5,2.1,0.9s0.7,0.9,0.7,1.6
				c0,0.8-0.4,1.4-1.1,1.9s-1.7,0.7-2.9,0.7C73.3,118.9,71.9,118.5,70.9,117.7z"/>
			<path class="st0" d="M91.8,110.7v5.1c0,0.7,0.2,1.2,0.5,1.4s0.8,0.4,1.3,0.4c0.4,0,0.7-0.1,1.1-0.2v1.3c-0.4,0.1-0.9,0.2-1.4,0.2
				c-1,0-1.7-0.2-2.3-0.7c-0.5-0.5-0.8-1.2-0.8-2.2v-5.3h-2v-1.2h2v-2.4l1.6-0.5v2.9h2.9v1.2L91.8,110.7L91.8,110.7z"/>
		</g>
	</g>
	<path class="st0" d="M89.3,35.7v-0.2c-0.1-3.7-1.3-7.3-3.4-10.4c-0.6-0.9-1.3-1.8-2.1-2.6c-2.6-2.7-5.8-4.5-9.3-5.4
		c-2.5-2.6-5.7-4.5-9.3-5.4c-4.9-1.2-9.9-0.5-14.3,1.9l-0.3,0.2c-0.1,0.1-0.3,0.1-0.4,0.2c-0.1,0-0.2,0.1-0.2,0.1
		c-3.2,2-5.7,4.8-7.3,8.1c-0.5,1-0.9,2.1-1.2,3.1c-1,3.5-1,7.2,0,10.8c-1,3.5-1,7.2,0,10.8c1.4,4.8,4.5,8.9,8.8,11.4l0.3,0.2
		c0.1,0.1,0.3,0.1,0.4,0.2l0,0l0.2,0.1c2.9,1.5,6,2.3,9.2,2.3c0.5,0,1,0,1.5-0.1c1.1-0.1,2.2-0.3,3.3-0.5c3.6-0.9,6.8-2.8,9.3-5.4
		c3.5-0.9,6.8-2.7,9.3-5.4c3.5-3.6,5.4-8.3,5.5-13.3v-0.3C89.3,35.9,89.3,35.8,89.3,35.7z M57.8,45.9c-2.3-2.9-3.6-6.3-3.6-9.8
		c0-3.6,1.3-7,3.6-9.8c3.7-0.6,7.2,0,10.3,1.8s5.4,4.6,6.7,8c-1.3,3.5-3.6,6.2-6.7,8C65,45.9,61.4,46.5,57.8,45.9z M43.4,25.9
		c0.3-1,0.6-1.9,1.1-2.8c1.4-3,3.7-5.5,6.6-7.3l0.2-0.1c0.1-0.1,0.2-0.1,0.3-0.2l0.3-0.2c3.9-2.2,8.5-2.8,12.9-1.7
		c2.1,0.5,4,1.4,5.7,2.6h-0.1l1.1,0.9c-0.5,0-0.9,0.1-1.4,0.2c-3.1,0.5-6,1.6-8.6,3.2c-0.8,0.5-1.5,1-2.2,1.6
		c-0.2,0.2-0.4,0.4-0.7,0.6c-0.1,0.1-0.1,0.1-0.2,0.2c-0.6,0.6-1.2,1.2-1.8,1.8l-1.8,2.1l0.3-0.1c-1.8,2.8-2.8,6.1-2.8,9.4
		c0,3.2,0.9,6.3,2.6,9c-0.2-0.1-0.4-0.1-0.6-0.2c-0.8-0.3-1.5-0.6-2.2-1c-2.5-1.3-4.7-3.1-6.5-5.3c-0.8-0.9-1.4-1.9-2-3
		C42.5,32.5,42.5,29.1,43.4,25.9z M64.7,58.6c-1,0.2-2,0.4-3,0.5c-3.3,0.3-6.6-0.4-9.6-2l-0.8-0.4c-3.9-2.3-6.7-6-7.9-10.3
		c-0.7-2.5-0.9-5.1-0.5-7.7c0.1,0.1,0.2,0.2,0.3,0.3c0.2,0.3,0.5,0.7,0.7,1c2,2.4,4.4,4.4,7.1,5.8c0.8,0.4,1.6,0.8,2.5,1.1
		c1.2,0.4,2.4,0.8,3.6,1l2.7,0.5l-0.2-0.2c3.4,0.1,6.6-0.6,9.5-2.3c2.8-1.6,5-3.9,6.6-6.7c0,0.2,0.1,0.4,0.1,0.6
		c0.1,0.8,0.2,1.6,0.2,2.4c0.1,2.8-0.4,5.6-1.4,8.3c-0.4,1.1-0.9,2.2-1.5,3.3C70.8,56,67.9,57.7,64.7,58.6z M87.3,36.4
		c-0.1,4.5-1.8,8.7-5,12c-1.8,1.9-4,3.3-6.4,4.2c0.2-0.3,0.3-0.7,0.4-1c0.1-0.2,0.1-0.3,0.2-0.5c1.1-3,1.6-6,1.5-9.1
		c0-0.9-0.1-1.8-0.3-2.7c-0.2-1.2-0.5-2.4-0.9-3.6l-0.9-2.6l-0.1,0.3c-1.6-3-3.9-5.4-6.7-7.1c-2.6-1.5-5.6-2.3-8.7-2.3
		c-0.1,0-0.3,0-0.4,0c0.2-0.1,0.3-0.3,0.5-0.4c0.6-0.5,1.3-1,2-1.4c2.4-1.5,5-2.5,7.9-2.9c1.2-0.2,2.4-0.3,3.6-0.3
		c3.2,0.8,6.2,2.5,8.5,4.9c0.7,0.7,1.3,1.5,1.9,2.3c1.9,2.8,2.9,6,3.1,9.4v0.2c0,0.1,0,0.2,0,0.4L87.3,36.4z"/>
</g>
</svg>
