<?xml version="1.0" encoding="utf-8"?>
<!-- Generator: Adobe Illustrator 22.1.0, SVG Export Plug-In . SVG Version: 6.00 Build 0)  -->
<svg version="1.1" id="Warstwa_1" xmlns="http://www.w3.org/2000/svg" xmlns:xlink="http://www.w3.org/1999/xlink" x="0px" y="0px"
	 viewBox="0 0 130 130" style="enable-background:new 0 0 130 130;" xml:space="preserve">
<style type="text/css">
	.st0{fill:#FFFFFF;}
</style>
<g>
	<g>
		<g>
			<path class="st0" d="M8.7,78.3l-0.1,9.6c0,1.3,0.3,2.2,0.9,2.7c0.6,0.5,1.4,0.8,2.5,0.8c0.7,0,1.4-0.1,2.1-0.3v2.4
				c-0.8,0.2-1.7,0.3-2.7,0.3c-1.8,0-3.3-0.5-4.3-1.4s-1.5-2.3-1.5-4.2l0.1-10H1.9V76h3.8v-4.5l3.1-1V76h5.5v2.2L8.7,78.3z"/>
			<path class="st0" d="M22.6,92.8c-1.4-0.8-2.4-1.8-3.2-3.2s-1.1-3-1.1-4.8s0.4-3.4,1.2-4.8s1.8-2.4,3.2-3.2c1.4-0.7,3-1.1,4.8-1.1
				s3.4,0.4,4.8,1.1c1.4,0.8,2.4,1.8,3.2,3.2c0.7,1.4,1.1,3,1.1,4.8s-0.4,3.4-1.2,4.8s-1.8,2.4-3.2,3.2c-1.4,0.7-3,1.1-4.8,1.1
				C25.5,93.9,23.9,93.5,22.6,92.8z M31.8,89.9c1-1.1,1.5-2.8,1.6-5c0-2.1-0.5-3.8-1.5-5s-2.5-1.8-4.4-1.8s-3.4,0.6-4.4,1.7
				c-1.1,1.2-1.6,2.8-1.6,5s0.5,3.9,1.5,5c1,1.2,2.5,1.7,4.4,1.8C29.3,91.6,30.7,91,31.8,89.9z"/>
			<path class="st0" d="M59,76.3l-0.1,17.5h-3v-3c-0.6,1.1-1.5,1.9-2.6,2.4S51,94,49.6,94c-2.3,0-4-0.6-5.2-1.8
				c-1.2-1.2-1.7-2.9-1.7-5.2l0.1-10.9h3.1l-0.1,10.8c0,1.6,0.3,2.7,1.1,3.5c0.7,0.7,1.8,1.1,3.2,1.1c1.7,0,3.1-0.5,4.1-1.5
				s1.6-2.3,1.6-4l0.1-9.9L59,76.3z"/>
			<path class="st0" d="M69.6,93.1c-1.4-0.8-2.5-1.8-3.2-3.2s-1.1-2.9-1.1-4.8s0.4-3.4,1.2-4.8s1.9-2.4,3.3-3.2
				c1.4-0.8,3.1-1.1,5-1.1c1.3,0,2.6,0.2,3.8,0.6s2.2,1,3,1.7l-1,2.1c-1-0.7-1.9-1.2-2.8-1.5c-0.9-0.3-1.8-0.5-2.8-0.5
				c-2,0-3.5,0.6-4.6,1.8c-1.1,1.2-1.7,2.9-1.7,5s0.5,3.8,1.6,4.9c1.1,1.2,2.7,1.8,4.6,1.8c0.9,0,1.9-0.2,2.8-0.5
				c0.9-0.3,1.8-0.8,2.8-1.5l1,2.1c-0.8,0.7-1.9,1.2-3.1,1.6c-1.2,0.4-2.5,0.6-3.9,0.6C72.7,94.2,71,93.8,69.6,93.1z"/>
			<path class="st0" d="M104,76.6l-0.1,17.5h-3.1v-3.2c-0.6,1.1-1.4,1.9-2.6,2.5c-1.1,0.6-2.5,0.9-4,0.9c-1.7,0-3.2-0.4-4.5-1.1
				c-1.3-0.8-2.3-1.8-3-3.2c-0.7-1.4-1-2.9-1-4.8s0.4-3.4,1.1-4.8s1.7-2.4,3-3.2s2.8-1.1,4.5-1.1c1.5,0,2.8,0.3,3.9,0.9
				s2,1.5,2.6,2.6v-3L104,76.6z M99.3,90.3c1-1.2,1.5-2.8,1.6-5c0-2.2-0.5-3.8-1.5-5s-2.5-1.8-4.4-1.8s-3.4,0.6-4.4,1.8
				s-1.6,2.9-1.6,5s0.5,3.8,1.5,5s2.5,1.8,4.4,1.8C96.8,92,98.3,91.4,99.3,90.3z"/>
			<path class="st0" d="M128.1,83.3l-0.1,11h-3.1l0.1-10.9c0-1.6-0.3-2.8-1.1-3.6c-0.7-0.8-1.8-1.1-3.4-1.2c-1.8,0-3.2,0.5-4.3,1.5
				c-1.1,1-1.6,2.3-1.6,4l-0.1,10h-3.1l0.1-12.6c0-1.8-0.1-3.4-0.3-4.9h2.9l0.3,3.1c0.6-1.1,1.5-2,2.7-2.6s2.5-0.9,4-0.9
				C125.8,76.3,128.1,78.6,128.1,83.3z"/>
		</g>
		<g>
			<path class="st0" d="M15,114l0.5-1.1c0.6,0.4,1.1,0.7,1.7,0.8s1.2,0.3,1.9,0.3c0.8,0,1.4-0.1,1.8-0.4c0.4-0.2,0.6-0.6,0.6-1
				s-0.1-0.7-0.4-0.9c-0.3-0.2-0.7-0.4-1.3-0.5l-1.7-0.4c-0.9-0.2-1.5-0.5-2-0.9s-0.7-1-0.7-1.6c0-0.8,0.4-1.5,1.1-2
				c0.7-0.5,1.7-0.8,2.8-0.8c0.7,0,1.4,0.1,2,0.3c0.6,0.2,1.2,0.5,1.6,0.9l-0.5,1.1c-1-0.7-2-1.1-3.1-1.1c-0.7,0-1.3,0.1-1.7,0.4
				s-0.6,0.6-0.6,1.1c0,0.4,0.1,0.7,0.4,0.9c0.3,0.2,0.7,0.4,1.2,0.5l1.7,0.4c0.9,0.2,1.6,0.5,2.1,0.9s0.7,0.9,0.7,1.6
				c0,0.8-0.4,1.4-1.1,1.9s-1.7,0.7-2.9,0.7C17.3,115.2,16,114.8,15,114z"/>
			<path class="st0" d="M35.9,107v5.1c0,0.7,0.2,1.2,0.5,1.4c0.3,0.3,0.8,0.4,1.3,0.4c0.4,0,0.7-0.1,1.1-0.2v1.3
				c-0.4,0.1-0.9,0.2-1.4,0.2c-1,0-1.7-0.2-2.3-0.7c-0.5-0.5-0.8-1.2-0.8-2.2V107h-2v-1.2h2v-2.4l1.6-0.5v2.9h2.9v1.2L35.9,107
				L35.9,107z"/>
			<path class="st0" d="M57.4,105.8v9.3h-1.6v-1.6c-0.3,0.6-0.8,1-1.4,1.3c-0.6,0.3-1.2,0.4-2,0.4c-1.2,0-2.1-0.3-2.7-0.9
				c-0.6-0.6-0.9-1.5-0.9-2.7v-5.8h1.6v5.7c0,0.8,0.2,1.5,0.6,1.8c0.4,0.4,1,0.6,1.7,0.6c0.9,0,1.6-0.3,2.2-0.8
				c0.6-0.5,0.8-1.2,0.8-2.1v-5.2L57.4,105.8L57.4,105.8z"/>
			<path class="st0" d="M77.7,101.5v13.6H76v-1.7c-0.3,0.6-0.7,1-1.3,1.3s-1.3,0.5-2.1,0.5c-0.9,0-1.7-0.2-2.4-0.6s-1.2-1-1.6-1.7
				c-0.4-0.7-0.6-1.6-0.6-2.5c0-1,0.2-1.8,0.6-2.5c0.4-0.7,0.9-1.3,1.6-1.7c0.7-0.4,1.5-0.6,2.4-0.6c0.8,0,1.5,0.2,2.1,0.5
				s1,0.8,1.3,1.3v-5.9L77.7,101.5L77.7,101.5z M75.2,113c0.5-0.6,0.8-1.5,0.8-2.6s-0.3-2-0.8-2.6s-1.3-0.9-2.3-0.9
				s-1.8,0.3-2.3,0.9c-0.6,0.6-0.8,1.5-0.8,2.6s0.3,2,0.8,2.7c0.6,0.6,1.3,0.9,2.3,0.9S74.7,113.7,75.2,113z"/>
			<path class="st0" d="M88.8,101.9h2v1.7h-2V101.9z M89,115.1v-9.3h1.6v9.3H89z"/>
			<path class="st0" d="M103.6,114.6c-0.7-0.4-1.3-1-1.7-1.7c-0.4-0.7-0.6-1.6-0.6-2.5s0.2-1.8,0.6-2.5s1-1.3,1.7-1.7
				c0.7-0.4,1.6-0.6,2.5-0.6s1.8,0.2,2.5,0.6s1.3,1,1.7,1.7c0.4,0.7,0.6,1.6,0.6,2.5s-0.2,1.8-0.6,2.5s-1,1.3-1.7,1.7
				c-0.7,0.4-1.6,0.6-2.5,0.6S104.3,115,103.6,114.6z M108.4,113.1c0.5-0.6,0.8-1.5,0.8-2.7c0-1.1-0.3-2-0.8-2.6
				c-0.6-0.6-1.3-0.9-2.3-0.9s-1.8,0.3-2.3,0.9s-0.8,1.5-0.8,2.6c0,1.2,0.3,2.1,0.8,2.7s1.3,0.9,2.3,0.9S107.9,113.7,108.4,113.1z"
				/>
		</g>
	</g>
	<path class="st0" d="M91.5,45.8C91.5,45.7,91.5,45.7,91.5,45.8v-24v-0.1c0.1-0.4-0.1-0.8-0.5-1l-12.8-5.9c-0.2-0.1-0.5-0.1-0.8,0
		L65,20.5l-12.4-5.7c-0.2-0.1-0.5-0.1-0.8,0L39,20.7c-0.3,0.2-0.5,0.5-0.5,0.9c0,0,0,0,0,0.1v0.1V46c0,0.4,0.2,0.7,0.5,0.9l12.8,5.9
		c0.2,0.1,0.5,0.1,0.8,0L65,47.1l12.4,5.7c0.1,0.1,0.3,0.1,0.4,0.1c0.1,0,0.3,0,0.4-0.1L91,46.9C91.3,46.6,91.5,46.2,91.5,45.8
		L91.5,45.8z M78.8,17.1l10.9,5v22.3l-10.9-5V17.1z M52.2,16.6l10.5,4.9l-10.5,4.8l-10.5-4.9L52.2,16.6z M40.4,23l10.9,5v22.3
		l-10.9-5V23z M53.1,50.3V28l23.7-10.9v22.3L53.1,50.3z M77.8,50.7l-10.5-4.9L77.8,41l0,0l0,0l10.5,4.9L77.8,50.7z"/>
</g>
</svg>
